<svg width="800" height="800" viewBox="0 0 800 800" fill="none" xmlns="http://www.w3.org/2000/svg">
<path d="M243.1 456.9C239.916 453.825 237.377 450.147 235.63 446.08C233.883 442.013 232.963 437.639 232.925 433.213C232.887 428.787 233.73 424.398 235.406 420.302C237.082 416.205 239.557 412.483 242.687 409.354C245.817 406.224 249.538 403.749 253.635 402.073C257.731 400.397 262.121 399.553 266.547 399.592C270.973 399.63 275.347 400.55 279.414 402.297C283.48 404.044 287.158 406.583 290.233 409.767L366.667 486.2V100C366.667 91.1595 370.179 82.681 376.43 76.4298C382.681 70.1786 391.159 66.6667 400 66.6667C408.841 66.6667 417.319 70.1786 423.57 76.4298C429.821 82.681 433.333 91.1595 433.333 100V486.2L509.767 409.767C516.053 403.695 524.473 400.335 533.213 400.411C541.953 400.487 550.314 403.992 556.494 410.173C562.674 416.353 566.18 424.713 566.256 433.453C566.332 442.193 562.972 450.613 556.9 456.9L423.567 590.233C420.463 593.321 416.782 595.768 412.733 597.433C408.702 599.128 404.373 600 400 600C395.627 600 391.298 599.128 387.267 597.433C383.218 595.768 379.537 593.321 376.433 590.233L243.1 456.9ZM733.333 400C724.493 400 716.014 403.512 709.763 409.763C703.512 416.014 700 424.493 700 433.333V666.667H100V433.333C100 424.493 96.4881 416.014 90.2369 409.763C83.9857 403.512 75.5073 400 66.6667 400C57.8262 400 49.3477 403.512 43.0965 409.763C36.8453 416.014 33.3334 424.493 33.3334 433.333V700C33.3334 708.841 36.8453 717.319 43.0965 723.57C49.3477 729.821 57.8262 733.333 66.6667 733.333H733.333C742.174 733.333 750.652 729.821 756.904 723.57C763.155 717.319 766.667 708.841 766.667 700V433.333C766.667 424.493 763.155 416.014 756.904 409.763C750.652 403.512 742.174 400 733.333 400Z" fill="white"/>
</svg>
