<svg width="800" height="800" viewBox="0 0 800 800" fill="none" xmlns="http://www.w3.org/2000/svg">
<path d="M766.667 433.333V700C766.667 708.841 763.155 717.319 756.904 723.57C750.652 729.821 742.174 733.333 733.333 733.333H66.6667C57.8261 733.333 49.3477 729.821 43.0965 723.57C36.8452 717.319 33.3333 708.841 33.3333 700V433.333C33.3333 424.493 36.8452 416.014 43.0965 409.763C49.3477 403.512 57.8261 400 66.6667 400C75.5072 400 83.9857 403.512 90.2369 409.763C96.4881 416.014 100 424.493 100 433.333V666.667H700V433.333C700 424.493 703.512 416.014 709.763 409.763C716.014 403.512 724.493 400 733.333 400C742.174 400 750.652 403.512 756.904 409.763C763.155 416.014 766.667 424.493 766.667 433.333ZM400 600C408.841 600 417.319 596.488 423.57 590.237C429.821 583.986 433.333 575.507 433.333 566.667V180.467L509.767 256.9C516.053 262.972 524.473 266.332 533.213 266.256C541.953 266.18 550.314 262.674 556.494 256.494C562.674 250.314 566.18 241.953 566.256 233.213C566.332 224.473 562.972 216.053 556.9 209.767L423.567 76.4333C417.316 70.1843 408.839 66.6738 400 66.6738C391.161 66.6738 382.684 70.1843 376.433 76.4333L243.1 209.767C239.916 212.842 237.377 216.52 235.63 220.587C233.883 224.653 232.963 229.027 232.925 233.453C232.887 237.879 233.73 242.269 235.406 246.365C237.082 250.462 239.557 254.183 242.687 257.313C245.817 260.443 249.538 262.918 253.635 264.594C257.731 266.27 262.121 267.113 266.547 267.075C270.973 267.037 275.347 266.117 279.413 264.37C283.48 262.623 287.158 260.084 290.233 256.9L366.667 180.467V566.667C366.667 575.507 370.179 583.986 376.43 590.237C382.681 596.488 391.159 600 400 600Z" fill="white"/>
</svg>
